<?xml version="1.0" encoding="UTF-8"?><svg xmlns="http://www.w3.org/2000/svg" width="77.57" height="17.97" viewBox="0 0 77.57 17.97"><defs><style>.d{fill:#fff;}</style></defs><g id="a"/><g id="b"><g id="c"><g><g><path class="d" d="M22.52,14.24V4.5c-.18,.15-.38,.3-.6,.44-.22,.14-.45,.28-.68,.4-.23,.12-.46,.24-.69,.33-.23,.1-.44,.18-.64,.25v-.86c.6-.19,1.17-.46,1.71-.79,.54-.34,1.07-.73,1.58-1.17h.28V14.24h-.97Z"/><path class="d" d="M31.13,6.14c0-.34-.05-.65-.16-.92s-.25-.49-.44-.67-.41-.32-.68-.41c-.26-.09-.55-.14-.87-.14-.49,0-.95,.12-1.4,.35s-.87,.54-1.27,.92v-1.08c.39-.33,.81-.58,1.26-.77,.46-.18,.97-.27,1.54-.27,.09,0,.18,0,.26,.02s.17,.03,.25,.05c.38,.04,.71,.14,1.02,.28s.57,.34,.79,.58,.39,.52,.5,.85c.12,.33,.18,.69,.18,1.09,0,.47-.06,.88-.18,1.25-.12,.37-.29,.71-.52,1.02s-.5,.61-.81,.88c-.32,.28-.67,.55-1.06,.83-.44,.31-.81,.59-1.12,.83s-.57,.47-.78,.69-.36,.44-.47,.65-.17,.46-.21,.73c-.03,.07-.04,.14-.05,.21s-.01,.15-.01,.24h5.43v.87h-6.45v-.52c0-.49,.06-.91,.17-1.26,.11-.36,.29-.69,.54-1s.55-.62,.93-.93c.38-.31,.84-.66,1.37-1.04,.36-.26,.68-.52,.96-.76,.28-.25,.51-.5,.7-.76,.19-.26,.33-.54,.43-.83,.1-.29,.14-.62,.14-.98Z"/><path class="d" d="M45.95,14.24v-5.1h-5.94v5.1h-1.01V3.34h1.01v4.89h5.94V3.34h1.01V14.24h-1.01Z"/><path class="d" d="M52.81,14.42c-.58,0-1.1-.1-1.55-.29-.46-.19-.85-.46-1.17-.82-.32-.35-.57-.77-.75-1.27s-.26-1.04-.26-1.63c0-.65,.09-1.23,.27-1.74,.18-.51,.44-.95,.78-1.3s.74-.63,1.22-.82,1.01-.28,1.6-.28,1.07,.09,1.52,.28c.45,.18,.83,.45,1.15,.8,.31,.35,.55,.77,.72,1.28,.17,.5,.25,1.07,.25,1.71s-.09,1.16-.26,1.66-.42,.93-.75,1.29c-.32,.36-.72,.64-1.19,.84-.47,.2-.99,.3-1.58,.3Zm.08-7.3c-.43,0-.81,.07-1.16,.22s-.64,.36-.88,.64c-.25,.28-.43,.63-.57,1.03-.13,.41-.2,.87-.2,1.39,0,.49,.07,.92,.2,1.31,.13,.39,.32,.72,.56,1,.24,.28,.53,.49,.88,.64,.34,.15,.73,.22,1.15,.22s.82-.07,1.16-.22,.62-.35,.85-.63c.23-.28,.41-.61,.53-1.01,.12-.4,.18-.86,.18-1.37,0-1.05-.23-1.85-.7-2.41s-1.13-.83-2-.83Z"/><path class="d" d="M63.64,14.24v-1.32h-.03c-.53,1-1.34,1.5-2.45,1.5-1.85,0-2.77-1.13-2.77-3.39V6.46h.97v4.39c0,.93,.17,1.62,.5,2.07,.33,.45,.84,.67,1.52,.67,.33,0,.64-.06,.92-.19,.28-.13,.51-.31,.71-.55s.36-.52,.47-.85,.17-.69,.17-1.09V6.46h.97v7.78h-.97Z"/><path class="d" d="M70.98,7.45c-.23-.17-.52-.25-.88-.25-.26,0-.49,.05-.68,.15-.2,.1-.37,.23-.52,.4s-.28,.36-.38,.58c-.1,.22-.19,.45-.25,.69-.06,.24-.11,.48-.14,.72-.03,.24-.04,.47-.04,.69v3.81h-.96V6.46h.96v1.66h.03c.09-.28,.21-.54,.35-.76,.14-.22,.3-.42,.48-.57,.18-.15,.38-.27,.6-.35s.44-.12,.68-.12c.16,0,.3,0,.42,.03,.12,.02,.24,.05,.34,.09v1.02Z"/><path class="d" d="M72.06,12.84c.15,.12,.31,.22,.48,.31,.17,.09,.35,.17,.53,.24,.18,.07,.37,.12,.55,.15,.18,.03,.36,.05,.53,.05,1.16,0,1.73-.43,1.73-1.3,0-.2-.04-.37-.12-.51s-.2-.28-.35-.39c-.15-.12-.33-.23-.55-.33s-.45-.21-.72-.32c-.36-.15-.67-.3-.93-.45-.26-.15-.47-.32-.64-.5-.17-.18-.29-.38-.37-.59-.08-.22-.12-.46-.12-.73,0-.34,.07-.65,.22-.92s.35-.5,.6-.68,.55-.33,.88-.43c.33-.1,.68-.15,1.04-.15,.67,0,1.26,.13,1.76,.38v1.03c-.58-.38-1.21-.56-1.88-.56-.24,0-.46,.03-.67,.09-.2,.06-.37,.15-.51,.26s-.25,.25-.33,.4c-.08,.15-.12,.33-.12,.51s.03,.36,.09,.5c.06,.14,.16,.28,.29,.39s.3,.23,.5,.33c.21,.11,.45,.22,.75,.34,.38,.15,.7,.3,.97,.45s.5,.31,.68,.49c.18,.17,.31,.37,.39,.58,.09,.21,.13,.46,.13,.75,0,.35-.07,.66-.22,.93-.14,.27-.34,.5-.6,.69s-.56,.33-.9,.43c-.34,.1-.72,.14-1.12,.14-.79,0-1.45-.17-1.98-.49v-1.09Z"/></g><path class="d" d="M13.66,1.71h-.85V0h-1.71V1.71H4.27V0h-1.71V1.71h-.85C.76,1.71,0,2.48,0,3.42V15.37c0,.94,.75,1.71,1.7,1.71H13.66c.94,0,1.71-.77,1.71-1.71V3.42c0-.94-.77-1.71-1.71-1.71Zm0,13.66H1.71V6.83H13.66V15.37Zm0-10.25H1.71v-1.71H13.66v1.71ZM5.12,10.25h-1.71v-1.71h1.71v1.71Zm3.42,0h-1.71v-1.71h1.71v1.71Zm3.42,0h-1.71v-1.71h1.71v1.71Zm-6.83,3.42h-1.71v-1.71h1.71v1.71Zm3.42,0h-1.71v-1.71h1.71v1.71Zm3.42,0h-1.71v-1.71h1.71v1.71Z"/></g></g></g></svg>