<svg xmlns="http://www.w3.org/2000/svg" width="617.89" height="157.24" viewBox="0 0 617.89 157.24"><defs><style>.cls-1,.cls-2{fill:none;}.cls-1{stroke:#fff;stroke-miterlimit:10;stroke-width:3px;}.cls-3{fill:#fff;}</style></defs><g id="Layer_2" data-name="Layer 2"><g id="Layer_1-2" data-name="Layer 1"><circle class="cls-1" cx="78.62" cy="78.62" r="77.12"/><circle class="cls-1" cx="308.95" cy="78.62" r="77.12"/><circle class="cls-1" cx="539.28" cy="78.62" r="77.12"/><path class="cls-2" d="M262.17,46.33h93.28v93.28H262.17Z"/><path class="cls-3" d="M317.67,65.78l4,4-39,39h-4v-4l39-39m15.51-25.93a4.27,4.27,0,0,0-3,1.25L322.28,49l16.16,16.16,7.88-7.89a4.29,4.29,0,0,0,0-6.07L336.24,41.1A4.24,4.24,0,0,0,333.18,39.85ZM317.67,53.59,270,101.23v16.16h16.16l47.64-47.64Zm192.6,63.61a9.7,9.7,0,0,0,9.67,9.67h38.67a9.7,9.7,0,0,0,9.67-9.67v-58h-58Zm9.67-48.34h38.67V117.2H519.94ZM556.2,44.69l-4.84-4.84H527.19l-4.83,4.84H505.44v9.66h67.68V44.69Zm-448.53-.21H103.4V36H94.87v8.53H60.73V36H52.2v8.53H47.93A8.49,8.49,0,0,0,39.44,53l0,59.74a8.52,8.52,0,0,0,8.53,8.53h59.74a8.56,8.56,0,0,0,8.54-8.53V53A8.56,8.56,0,0,0,107.67,44.48Zm0,68.28H47.93V70.08h59.74Zm0-51.21H47.93V53h59.74ZM65,87.15H56.46V78.62H65Zm17.07,0H73.53V78.62h8.54Zm17.07,0H90.6V78.62h8.54ZM65,104.22H56.46V95.69H65Zm17.07,0H73.53V95.69h8.54Zm17.07,0H90.6V95.69h8.54Z"/></g></g></svg>