<?xml version="1.0" encoding="UTF-8"?><svg xmlns="http://www.w3.org/2000/svg" width="280.95" height="72.72" viewBox="0 0 280.95 72.72"><defs><style>.d{fill:#fff;}.e{stroke:#fff;stroke-miterlimit:10;stroke-width:3px;}.e,.f{fill:none;}</style></defs><g id="a"/><g id="b"><g id="c"><g><circle class="e" cx="36.36" cy="36.36" r="34.86"/><circle class="e" cx="140.48" cy="36.36" r="34.86"/><circle class="e" cx="244.59" cy="36.36" r="34.86"/><path class="f" d="M119.33,21.76h42.17V63.93h-42.17V21.76Z"/><path class="d" d="M144.42,30.56l1.79,1.79-17.64,17.64h-1.79v-1.79l17.64-17.64m7.01-11.72c-.49,0-.99,.19-1.36,.56l-3.56,3.56,7.3,7.3,3.56-3.56c.76-.76,.76-1.99,0-2.75l-4.56-4.56c-.39-.39-.88-.56-1.38-.56Zm-7.01,6.21l-21.53,21.53v7.3h7.3l21.53-21.53-7.3-7.3Zm87.06,28.75c0,2.4,1.97,4.37,4.37,4.37h17.48c2.4,0,4.37-1.97,4.37-4.37V27.58h-26.22v26.22Zm4.37-21.85h17.48v21.85h-17.48V31.95Zm16.39-10.93l-2.19-2.19h-10.93l-2.19,2.19h-7.65v4.37h30.59v-4.37h-7.65Zm-202.75-.09h-1.93v-3.86h-3.86v3.86h-15.43v-3.86h-3.86v3.86h-1.93c-2.14,0-3.84,1.74-3.84,3.86l-.02,27.01c0,2.12,1.72,3.86,3.86,3.86h27.01c2.12,0,3.86-1.74,3.86-3.86V24.79c0-2.12-1.74-3.86-3.86-3.86Zm0,30.86H22.49v-19.29h27.01v19.29Zm0-23.15H22.49v-3.86h27.01v3.86Zm-19.29,11.57h-3.86v-3.86h3.86v3.86Zm7.72,0h-3.86v-3.86h3.86v3.86Zm7.72,0h-3.86v-3.86h3.86v3.86Zm-15.43,7.72h-3.86v-3.86h3.86v3.86Zm7.72,0h-3.86v-3.86h3.86v3.86Zm7.72,0h-3.86v-3.86h3.86v3.86Z"/></g></g></g></svg>