<?xml version="1.0" encoding="UTF-8"?><svg xmlns="http://www.w3.org/2000/svg" width="202.23" height="52.97" viewBox="0 0 202.23 52.97"><defs><style>.d{fill:#fff;}.e{stroke:#fff;stroke-miterlimit:10;stroke-width:3px;}.e,.f{fill:none;}</style></defs><g id="a"/><g id="b"><g id="c"><g><circle class="e" cx="26.49" cy="26.49" r="24.99"/><circle class="e" cx="101.11" cy="26.49" r="24.99"/><circle class="e" cx="175.74" cy="26.49" r="24.99"/><path class="f" d="M85.96,16.02h30.22v30.22h-30.22V16.02Z"/><path class="d" d="M103.94,22.33l1.28,1.28-12.64,12.64h-1.28v-1.28l12.64-12.64m5.02-8.4c-.35,0-.71,.14-.98,.4l-2.55,2.55,5.23,5.23,2.55-2.55c.54-.54,.54-1.42,0-1.97l-3.27-3.27c-.28-.28-.63-.4-.99-.4Zm-5.02,4.45l-15.44,15.44v5.23h5.23l15.44-15.44-5.23-5.23Zm62.4,20.61c0,1.72,1.41,3.13,3.13,3.13h12.53c1.72,0,3.13-1.41,3.13-3.13V20.19h-18.79v18.79Zm3.13-15.66h12.53v15.66h-12.53v-15.66Zm11.75-7.83l-1.57-1.57h-7.83l-1.57,1.57h-5.48v3.13h21.93v-3.13h-5.48Zm-145.32-.07h-1.38v-2.77h-2.77v2.77h-11.06v-2.77h-2.77v2.77h-1.38c-1.53,0-2.75,1.24-2.75,2.77v19.36c-.01,1.52,1.22,2.77,2.75,2.77h19.36c1.52,0,2.77-1.24,2.77-2.77V18.19c0-1.52-1.24-2.77-2.77-2.77Zm0,22.12H16.54v-13.83h19.36v13.83Zm0-16.59H16.54v-2.77h19.36v2.77Zm-13.83,8.3h-2.77v-2.77h2.77v2.77Zm5.53,0h-2.77v-2.77h2.77v2.77Zm5.53,0h-2.77v-2.77h2.77v2.77Zm-11.06,5.53h-2.77v-2.77h2.77v2.77Zm5.53,0h-2.77v-2.77h2.77v2.77Zm5.53,0h-2.77v-2.77h2.77v2.77Z"/></g></g></g></svg>